<svg xmlns="http://www.w3.org/2000/svg" aria-hidden="true" style="position:absolute;width:0;height:0;overflow:hidden"><defs><symbol id="icon-next" viewBox="0 0 19 32"><path d="M17.936 13.727a3.019 3.019 0 0 0-.514-.417L5.247.908C4.059-.301 2.133-.302.944.909s-1.188 3.172 0 4.383L11.43 15.973.891 26.71a3.139 3.139 0 0 0 0 4.383 3 3 0 0 0 4.302-.001l12.23-12.457c.181-.119.356-.255.514-.417.608-.62.9-1.434.887-2.245a3.106 3.106 0 0 0-.887-2.245z"/></symbol><symbol id="icon-prev" viewBox="0 0 19 32"><path d="M.886 13.726c.159-.162.332-.298.514-.417L13.575.907c1.188-1.209 3.115-1.21 4.303.001s1.188 3.172 0 4.383L7.393 15.972l10.539 10.737a3.14 3.14 0 0 1 0 4.383 3.004 3.004 0 0 1-4.302 0L1.401 18.633a3.019 3.019 0 0 1-.514-.417 3.117 3.117 0 0 1-.886-2.245 3.108 3.108 0 0 1 .886-2.245z"/></symbol></defs></svg>